<svg width="20" height="21" viewBox="0 0 20 21" fill="none" xmlns="http://www.w3.org/2000/svg">
<path d="M20 18.2487V10.4227C20.0001 9.87821 19.889 9.33945 19.6735 8.83942C19.458 8.33939 19.1428 7.8886 18.747 7.51468L11.374 0.546685C11.0027 0.195613 10.511 0 10 0C9.48898 0 8.99734 0.195613 8.626 0.546685L1.253 7.51468C0.857224 7.8886 0.541952 8.33939 0.326498 8.83942C0.111043 9.33945 -5.78574e-05 9.87821 2.26035e-08 10.4227V18.2487C2.26035e-08 18.7791 0.210714 19.2878 0.585786 19.6629C0.960859 20.038 1.46957 20.2487 2 20.2487H18C18.5304 20.2487 19.0391 20.038 19.4142 19.6629C19.7893 19.2878 20 18.7791 20 18.2487Z" fill="#252579"/>
</svg>
