<svg width="153" height="14" viewBox="0 0 153 14" fill="none" xmlns="http://www.w3.org/2000/svg">
<path d="M1.82115 13.2137C1.43644 13.1995 1.10873 13.0641 0.838019 12.8076C0.567303 12.5369 0.424821 12.2092 0.410573 11.8245V6.50282C0.424821 5.49119 0.567303 4.53656 0.838019 3.63893C1.12298 2.74129 1.58605 1.98614 2.22722 1.37346C2.88264 0.746542 3.70903 0.404585 4.70641 0.347592H12.9561C13.3408 0.36184 13.6614 0.504322 13.9179 0.775038C14.1886 1.03151 14.3311 1.35209 14.3453 1.73679C14.3453 2.13574 14.21 2.4777 13.9392 2.76266C13.6828 3.04763 13.3551 3.19723 12.9561 3.21148H5.43307C4.89163 3.23998 4.44282 3.44658 4.08661 3.83128C3.7304 4.21598 3.50243 4.65767 3.4027 5.15636C3.31721 5.6408 3.28159 6.17511 3.29583 6.75929V11.8245C3.28159 12.2235 3.13198 12.5583 2.84702 12.829C2.56205 13.0855 2.22009 13.2137 1.82115 13.2137ZM4.30033 7.59281C4.30033 7.19386 4.44282 6.85902 4.72778 6.58831C4.9985 6.30334 5.33333 6.16086 5.73228 6.16086H12.9561C13.3551 6.16086 13.6899 6.30334 13.9606 6.58831C14.2456 6.85902 14.3881 7.19386 14.3881 7.59281C14.3881 7.99176 14.2527 8.33371 13.982 8.61868C13.697 8.88939 13.3551 9.02475 12.9561 9.02475H5.73228C5.33333 9.02475 4.99137 8.88939 4.70641 8.61868C4.43569 8.33371 4.30033 7.99176 4.30033 7.59281ZM23.1507 13.3206C22.4098 13.3206 21.676 13.2351 20.9494 13.0641C20.237 12.8931 19.553 12.6438 18.8976 12.3161C18.2422 11.9741 17.6652 11.5253 17.1665 10.9696C16.6678 10.414 16.3971 9.75141 16.3543 8.98201V8.08437V4.4297C16.3543 4.03075 16.4968 3.70304 16.7818 3.44658C17.081 3.17586 17.4301 3.0405 17.829 3.0405C18.6839 3.11174 19.147 3.57481 19.2182 4.4297V5.37009V8.31946C19.2467 8.76116 19.4106 9.13161 19.7098 9.43082C20.0232 9.71579 20.3652 9.94376 20.7356 10.1147C21.1203 10.2857 21.5122 10.414 21.9111 10.4994C22.3243 10.5849 22.7375 10.6277 23.1507 10.6277C23.5639 10.6277 23.97 10.5849 24.3689 10.4994C24.7821 10.414 25.174 10.2857 25.5444 10.1147C25.9291 9.94376 26.2711 9.71579 26.5703 9.43082C26.8837 9.13161 27.0547 8.76116 27.0832 8.31946V5.37009V4.4297C27.0832 4.03075 27.2257 3.70304 27.5107 3.44658C27.8099 3.17586 28.159 3.0405 28.5579 3.0405C29.4128 3.11174 29.883 3.57481 29.9685 4.4297V8.08437V8.98201C29.9257 9.75141 29.6479 10.414 29.135 10.9696C28.6363 11.5253 28.0592 11.9741 27.4038 12.3161C26.7484 12.6438 26.0573 12.8931 25.3307 13.0641C24.6183 13.2351 23.8916 13.3206 23.1507 13.3206ZM37.3419 0.00563502C37.7409 0.00563502 38.0828 0.140993 38.3678 0.411709C38.6528 0.668177 38.8024 0.995885 38.8166 1.39484V3.25423H46.0832C46.4822 3.25423 46.8241 3.38958 47.1091 3.6603C47.3798 3.94526 47.5151 4.28722 47.5151 4.68617C47.5151 5.08512 47.3727 5.42708 47.0877 5.71204C46.817 5.98276 46.4822 6.11812 46.0832 6.11812H38.8166V6.54556C38.8024 7.12974 38.838 7.67117 38.9235 8.16986C39.0232 8.6543 39.2512 9.08887 39.6074 9.47357C39.9636 9.85827 40.4124 10.0649 40.9538 10.0934H46.1687C46.5676 10.1076 46.8954 10.2572 47.1518 10.5422C47.4225 10.8271 47.5579 11.1691 47.5579 11.5681C47.5436 11.9528 47.4012 12.2805 47.1304 12.5512C46.874 12.8076 46.5534 12.943 46.1687 12.9573H40.2272C39.2298 12.9003 38.4034 12.5654 37.748 11.9528C37.1068 11.3258 36.6438 10.5636 36.3588 9.66592C36.0881 8.76828 35.9456 7.81365 35.9314 6.80203V6.11812H33.4735C33.0746 6.11812 32.7398 5.97563 32.469 5.69067C32.1841 5.41995 32.0416 5.08512 32.0416 4.68617C32.0416 4.28722 32.177 3.95239 32.4477 3.68167C32.7326 3.39671 33.0746 3.25423 33.4735 3.25423H35.9314V1.39484C35.9456 1.01013 36.0881 0.689549 36.3588 0.433081C36.6295 0.162365 36.9572 0.0198832 37.3419 0.00563502ZM63.181 4.49382C63.181 4.85003 63.0386 5.14924 62.7536 5.39146C62.4829 5.61943 62.1481 5.73341 61.7491 5.73341H52.7086C52.5234 5.73341 52.3738 5.76903 52.2598 5.84028C52.1458 5.91152 52.0603 5.98988 52.0033 6.07537C51.9463 6.14661 51.9178 6.21073 51.9178 6.26772C51.9178 6.33896 51.9463 6.41733 52.0033 6.50282C52.0603 6.57406 52.1458 6.6453 52.2598 6.71654C52.3738 6.77353 52.5234 6.80915 52.7086 6.8234H59.6974C60.595 6.83765 61.3359 7.01575 61.9201 7.35771C62.5043 7.68542 62.9175 8.07724 63.1597 8.53319C63.4161 8.97488 63.5444 9.4237 63.5444 9.87964C63.5444 10.3213 63.4161 10.7702 63.1597 11.2261C62.9032 11.6678 62.4829 12.0596 61.8987 12.4016C61.3288 12.7293 60.595 12.8931 59.6974 12.8931C59.5406 12.9074 59.4266 12.9145 59.3554 12.9145H51.0629C50.664 12.9145 50.322 12.8005 50.0371 12.5726C49.7664 12.3303 49.631 12.0382 49.631 11.6963C49.631 11.3401 49.7735 11.0409 50.0585 10.7987C50.3292 10.5707 50.664 10.4567 51.0629 10.4567H59.8683C60.0821 10.4709 60.253 10.4424 60.3813 10.3712C60.5238 10.3 60.6306 10.2216 60.7019 10.1361C60.7731 10.0506 60.8087 9.96513 60.8087 9.87964C60.8087 9.8369 60.7731 9.76566 60.7019 9.66592C60.6306 9.55193 60.5238 9.46644 60.3813 9.40945C60.253 9.33821 60.0821 9.29547 59.8683 9.28122H52.8582C52.0318 9.26697 51.3479 9.09599 50.8065 8.76828C50.265 8.42633 49.8803 8.0345 49.6524 7.59281C49.4244 7.15111 49.3104 6.70942 49.3104 6.26772C49.3104 5.82603 49.4244 5.39146 49.6524 4.96401C49.8946 4.52232 50.2793 4.14474 50.8065 3.83128C51.3479 3.50357 52.0318 3.32547 52.8582 3.29697C53.0007 3.28272 53.1076 3.2756 53.1788 3.2756H61.7491C62.1481 3.2756 62.4829 3.39671 62.7536 3.63893C63.0386 3.8669 63.181 4.15186 63.181 4.49382ZM77.8638 11.8245V6.6738C77.8638 6.31759 77.6786 6.13236 77.3081 6.11812H69.8278C69.5571 6.13236 69.322 6.25347 69.1226 6.48145C68.9231 6.69517 68.7735 6.95164 68.6737 7.25085C68.5882 7.53581 68.5455 7.8279 68.5455 8.12711C68.5455 8.41208 68.5882 8.70417 68.6737 9.00338C68.7735 9.28834 68.9231 9.54481 69.1226 9.77278C69.322 9.9865 69.5571 10.0934 69.8278 10.0934H75.2992C75.6981 10.0934 76.0329 10.2358 76.3037 10.5208C76.5886 10.7915 76.7311 11.1264 76.7311 11.5253C76.7311 11.9243 76.5886 12.2591 76.3037 12.5298C76.0329 12.8148 75.6981 12.9573 75.2992 12.9573H69.9133C68.916 12.943 68.0896 12.6652 67.4341 12.1237C66.793 11.5681 66.3299 10.9483 66.0449 10.2643C65.7742 9.56618 65.6389 8.84665 65.6389 8.10574C65.6389 7.39333 65.7813 6.69517 66.0663 6.01125C66.3513 5.31309 66.8143 4.6933 67.4555 4.15186C68.0967 3.59618 69.0442 3.29697 70.298 3.25423H79.2744C79.6734 3.25423 80.0153 3.38958 80.3003 3.6603C80.5852 3.91677 80.7348 4.24448 80.7491 4.64343V11.8245C80.7491 12.2235 80.5995 12.5583 80.3003 12.829C80.0153 13.0855 79.6734 13.2137 79.2744 13.2137C78.4195 13.1425 77.9493 12.6794 77.8638 11.8245ZM84.9808 0.00563502C85.3655 0.0198832 85.6932 0.162365 85.9639 0.433081C86.2347 0.689549 86.3771 1.01013 86.3914 1.39484V11.8673C86.3059 12.7222 85.8357 13.1852 84.9808 13.2565C84.5819 13.2565 84.2328 13.1282 83.9336 12.8718C83.6486 12.6011 83.5061 12.2662 83.5061 11.8673V1.39484C83.5204 0.995885 83.67 0.668177 83.9549 0.411709C84.2399 0.140993 84.5819 0.00563502 84.9808 0.00563502ZM90.5804 0.00563502C90.9651 0.0198832 91.2928 0.162365 91.5635 0.433081C91.8342 0.689549 91.9767 1.01013 91.9909 1.39484V11.8673C91.9054 12.7222 91.4352 13.1852 90.5804 13.2565C90.1814 13.2565 89.8323 13.1282 89.5331 12.8718C89.2481 12.6011 89.1057 12.2662 89.1057 11.8673V1.39484C89.1199 0.995885 89.2695 0.668177 89.5545 0.411709C89.8394 0.140993 90.1814 0.00563502 90.5804 0.00563502ZM107.08 0.00563502C107.479 0.00563502 107.821 0.140993 108.106 0.411709C108.391 0.668177 108.54 0.995885 108.554 1.39484V1.80091C108.54 2.38509 108.576 2.92652 108.661 3.4252C108.761 3.90964 108.989 4.34421 109.345 4.72892C109.701 5.11362 110.15 5.32022 110.692 5.34871H116.697V1.43758C116.697 1.03863 116.84 0.710921 117.125 0.454454C117.424 0.183738 117.773 0.0483796 118.172 0.0483796C119.027 0.119621 119.497 0.582687 119.583 1.43758V6.39596C119.583 7.53581 119.426 8.61155 119.112 9.62317C118.827 10.5208 118.357 11.2831 117.702 11.91C117.061 12.5227 116.241 12.8575 115.244 12.9145H107.55C107.165 12.9003 106.838 12.7649 106.567 12.5084C106.31 12.2377 106.175 11.91 106.161 11.5253C106.161 11.1264 106.289 10.7844 106.545 10.4994C106.816 10.2145 107.151 10.0649 107.55 10.0506H114.517C115.059 10.0221 115.508 9.81553 115.864 9.43082C116.192 9.07462 116.412 8.66855 116.526 8.2126H109.965C108.968 8.15561 108.141 7.82078 107.486 7.2081C106.845 6.58118 106.382 5.8189 106.097 4.92127C105.826 4.02363 105.683 3.069 105.669 2.05738V1.39484C105.683 1.01013 105.826 0.689549 106.097 0.433081C106.367 0.162365 106.695 0.0198832 107.08 0.00563502ZM129.2 13.3206C128.459 13.3206 127.725 13.2351 126.999 13.0641C126.286 12.8931 125.602 12.6438 124.947 12.3161C124.292 11.9741 123.715 11.5253 123.216 10.9696C122.717 10.414 122.446 9.75141 122.404 8.98201V8.08437V4.4297C122.404 4.03075 122.546 3.70304 122.831 3.44658C123.13 3.17586 123.479 3.0405 123.878 3.0405C124.733 3.11174 125.196 3.57481 125.268 4.4297V5.37009V8.31946C125.296 8.76116 125.46 9.13161 125.759 9.43082C126.073 9.71579 126.415 9.94376 126.785 10.1147C127.17 10.2857 127.562 10.414 127.961 10.4994C128.374 10.5849 128.787 10.6277 129.2 10.6277C129.613 10.6277 130.019 10.5849 130.418 10.4994C130.832 10.414 131.223 10.2857 131.594 10.1147C131.979 9.94376 132.32 9.71579 132.62 9.43082C132.933 9.13161 133.104 8.76116 133.133 8.31946V5.37009V4.4297C133.133 4.03075 133.275 3.70304 133.56 3.44658C133.859 3.17586 134.208 3.0405 134.607 3.0405C135.462 3.11174 135.932 3.57481 136.018 4.4297V8.08437V8.98201C135.975 9.75141 135.697 10.414 135.184 10.9696C134.686 11.5253 134.109 11.9741 133.453 12.3161C132.798 12.6438 132.107 12.8931 131.38 13.0641C130.668 13.2351 129.941 13.3206 129.2 13.3206ZM140.228 0.00563502C140.613 0.0198832 140.941 0.162365 141.211 0.433081C141.482 0.689549 141.625 1.01013 141.639 1.39484V11.8673C141.553 12.7222 141.083 13.1852 140.228 13.2565C139.829 13.2565 139.48 13.1282 139.181 12.8718C138.896 12.6011 138.754 12.2662 138.754 11.8673V1.39484C138.768 0.995885 138.917 0.668177 139.202 0.411709C139.487 0.140993 139.829 0.00563502 140.228 0.00563502ZM142.943 5.96851C143.356 5.29884 144.146 4.80728 145.315 4.49382L150.808 3.01913C151.192 2.90515 151.556 2.94077 151.898 3.12599C152.254 3.29697 152.489 3.57481 152.603 3.95951C152.731 4.32997 152.703 4.6933 152.517 5.0495C152.346 5.39146 152.068 5.62655 151.684 5.75479L145.828 7.27222C145.415 7.42895 145.215 7.69967 145.229 8.08437C145.215 8.46907 145.415 8.73979 145.828 8.89652L151.684 10.414C152.068 10.5422 152.346 10.7844 152.517 11.1406C152.703 11.4826 152.731 11.8388 152.603 12.2092C152.489 12.5939 152.254 12.8718 151.898 13.0427C151.556 13.228 151.192 13.2636 150.808 13.1496L145.315 11.6749C144.132 11.3472 143.334 10.8485 142.921 10.1789C142.522 9.50919 142.323 8.81103 142.323 8.08437C142.323 7.35771 142.529 6.65242 142.943 5.96851Z" fill="#252579"/>
</svg>
