<svg width="16" height="21" viewBox="0 0 16 21" fill="none" xmlns="http://www.w3.org/2000/svg">
<circle cx="7.96541" cy="3.62069" r="3.07758" stroke="#C8C8C8" stroke-width="1.08621"/>
<path d="M15.3879 16.6552C15.3879 17.6838 15.1795 18.392 14.8511 18.8918C14.5259 19.3869 14.0483 19.7303 13.4086 19.9683C12.7598 20.2097 11.962 20.3356 11.0299 20.3979C10.1417 20.4572 9.16588 20.4571 8.11752 20.4569C8.06702 20.4569 8.01635 20.4569 7.96551 20.4569C7.91467 20.4569 7.864 20.4569 7.8135 20.4569C6.76514 20.4571 5.78929 20.4572 4.90116 20.3979C3.969 20.3356 3.17118 20.2097 2.52242 19.9683C1.88268 19.7303 1.40511 19.3869 1.07988 18.8918C0.751515 18.392 0.543103 17.6838 0.543103 16.6552C0.543103 12.5559 3.86623 9.2328 7.96551 9.2328C12.0648 9.2328 15.3879 12.5559 15.3879 16.6552Z" stroke="#C8C8C8" stroke-width="1.08621"/>
</svg>
